# xmcd CD database file
#
# Track frame offsets:
#	151
#	17846
#	29723
#	45440
#	62289
#	81349
#	98437
#	115515
#	128283
#	142736
#	160676
#	177937
#	201796
#	222187
#	239150
#
# Disc length: 3441 seconds
#
# Revision: 1
# Processed by: cddbd v1.5.1PL0 Copyright (c) Steve Scherf et al.
# Submitted via: CDex 1.51
#
DISCID=b90d6f0f
DTITLE=Various Artist - Country Compilation
DYEAR=2005
DGENRE=Country
TTITLE0=If Nobody Believes In You
TTITLE1=I Got Nothing To Lose
TTITLE2=Phil Vassar - In A Real Love
TTITLE3=God Bless The Broken Road
TTITLE4=She's Gone Country
TTITLE5=Alan Jackson - 5 o'clock Somewhere
TTITLE6=Living On Love
TTITLE7=I Wanna Do It All
TTITLE8=Montgomery Gentry - Hillbilly Shoes
TTITLE9=Red Dirt Road
TTITLE10=Brokenheartsville
TTITLE11=I Wanna Love Somebody Like You
TTITLE12=Rascall Flatts - Mayberry
TTITLE13=Paint Me A Birmingham
TTITLE14=I Love This Bar
EXTD=YEAR: 2005
EXTT0=
EXTT1=
EXTT2=
EXTT3=
EXTT4=
EXTT5=
EXTT6=
EXTT7=
EXTT8=
EXTT9=
EXTT10=
EXTT11=
EXTT12=
EXTT13=
EXTT14=
PLAYORDER=
